<svg xmlns="http://www.w3.org/2000/svg" viewBox="0 0 511.999 511.999"><path d="M375.743 414.205c0 35.708-28.947 64.656-64.656 64.656h-97.692c-35.708 0-64.656-28.947-64.656-64.656v-266.28h227.004v266.28z" fill="#5ec5ea"/><path d="M348.73 511.999H176.388c-9.151 0-16.57-7.419-16.57-16.57s7.419-16.57 16.57-16.57h172.344c9.151 0 16.57 7.419 16.57 16.57s-7.419 16.57-16.572 16.57z" fill="#227aa0"/><path d="M244.436 434.408c-1.376 0-2.774-.172-4.168-.534-8.859-2.296-14.179-11.34-11.883-20.197L332.374 12.413a16.577 16.577 0 0 1 9.817-11.202 16.58 16.58 0 0 1 14.845 1.207l81.591 49.709c7.815 4.761 10.29 14.956 5.529 22.772-4.761 7.814-14.954 10.292-22.772 5.529l-62.529-38.094-98.389 379.656c-1.935 7.465-8.661 12.418-16.03 12.418z" fill="#b4b4b5"/><circle cx="148.737" cy="147.929" r="83.316" fill="#f7dc4d"/><path d="M262.241 147.924V478.86h48.846c35.708 0 64.656-28.947 64.656-64.656v-266.28H262.241z" fill="#227aa0"/><path d="M148.741 288.31v125.894c0 35.708 28.947 64.656 64.656 64.656h97.693c35.708 0 64.656-28.947 64.656-64.656V288.31H148.741z" fill="#de3205"/><path d="M262.241 288.31v190.551h48.846c35.708 0 64.656-28.947 64.656-64.656V288.31H262.241z" fill="#9d2217"/><path d="M148.741 64.609v83.315H65.424c0 46.014 37.301 83.315 83.315 83.315s83.315-37.301 83.315-83.315-37.3-83.315-83.313-83.315z" fill="#eda637"/><path d="M65.424 147.924c0 46.014 37.301 83.315 83.315 83.315v-83.315H65.424z" fill="#e5bf2b"/><path d="M148.741 213.565c-36.194 0-65.64-29.446-65.64-65.641 0-36.194 29.446-65.64 65.64-65.64s65.64 29.446 65.64 65.64c-.001 36.194-29.447 65.641-65.64 65.641zm0-109.187c-24.012 0-43.546 19.535-43.546 43.546 0 24.012 19.535 43.547 43.546 43.547s43.546-19.535 43.546-43.547c0-24.011-19.535-43.546-43.546-43.546z" fill="#f7dc4d"/><path d="M148.741 191.471c-24.012 0-43.546-19.535-43.546-43.547 0-24.011 19.534-43.546 43.546-43.546V82.284c-36.194 0-65.64 29.446-65.64 65.64 0 36.195 29.446 65.641 65.64 65.641v-22.094z" fill="#f9ed9d"/></svg>