<svg xmlns="http://www.w3.org/2000/svg" viewBox="0 0 370 370"><path fill="#5a8bb0" d="M281.801 30H320V0h-61.801l-15.828 70h30.574z"/><path d="M55 70c0-22.092 17.908-40 40-40V0C56.34 0 25 31.34 25 70s31.34 70 70 70v-30c-22.092 0-40-17.908-40-40z" fill="#ffda44"/><path d="M95 110v30a69.664 69.664 0 0 0 39.627-12.303l-16.982-24.728A39.813 39.813 0 0 1 95 110zM135 70h30c0-38.66-31.34-70-70-70v30c22.092 0 40 17.908 40 40z" fill="#ff9811"/><path d="M95 30c-22.092 0-40 17.908-40 40s17.908 40 40 40a39.82 39.82 0 0 0 22.645-7.03L95 70h40c0-22.092-17.908-40-40-40z" fill="#fff"/><path fill="#ff5023" d="M220 100H115.604l89.457 130.25H220z"/><path fill="#bf3c1a" d="M220 230.25h14.939L324.396 100H220z"/><path d="M235 230.25h-.061L345 70H95l22.645 32.97 16.982 24.728 70.434 102.553H205V340h-55v30h140v-30h-55V230.25zM115.604 100h208.792l-89.457 130.25h-29.878L115.604 100z" fill="#aed5f3"/></svg>