<svg xmlns="http://www.w3.org/2000/svg" viewBox="0 0 511.994 511.994"><g fill="#d0e8f9"><path d="M386.166 511.994H177.895l37.602-15.039c29.705-11.88 49.178-40.648 49.178-72.643v-94.555h34.712v94.555c0 31.996 19.473 60.763 49.178 72.643l37.601 15.039zM82.438 104.129l158.269 165.81a86.625 86.625 0 0 1 23.969 59.817h34.712a86.62 86.62 0 0 1 23.969-59.817l158.269-165.81H82.438z"/></g><path d="M360.132 199.587c-26.008 23.3-62.69 23.057-77.85 0-17.833-23.135-50.766-23.144-73.633 0-6.847 6.422-14.319 10.986-21.877 13.841l53.934 56.511a86.625 86.625 0 0 1 23.969 59.817h34.712a86.62 86.62 0 0 1 23.969-59.817l83.378-87.352c-15.821-1.441-33.342 4.157-46.602 17" fill="#25b99a"/><path d="M82.438 104.129h69.424c0-33.549-27.197-60.746-60.746-60.746S30.37 70.58 30.37 104.129s27.197 60.746 60.746 60.746c14.006 0 26.867-4.79 37.142-12.748l-45.82-47.998z" fill="#ffd06c"/><path d="M299.387 260.337a8.77 8.77 0 0 1-2.942-.521 8.675 8.675 0 0 1-5.224-11.099l78.102-216.949a8.672 8.672 0 0 1 5.675-5.372L461.778.362c4.599-1.362 9.433 1.232 10.804 5.814 1.371 4.591-1.232 9.433-5.823 10.813L384.17 41.765l-76.618 212.827a8.68 8.68 0 0 1-8.165 5.745" fill="#e1705c"/></svg>